<svg width="138" height="143" viewBox="0 0 138 143" fill="none" xmlns="http://www.w3.org/2000/svg">
<path d="M133.899 109.142L84.682 74.382C81.4978 72.1389 77.4392 71.5495 73.7513 72.8042L4.2701 96.4145C0.829314 97.5836 0.163967 102.165 3.12951 104.266L52.3461 139.025C55.5303 141.268 59.5889 141.858 63.2768 140.603L132.768 116.993C136.208 115.824 136.874 111.242 133.908 109.142H133.899Z" fill="#FFA855"/>
<path d="M73.3487 71.6209C77.2893 70.2803 81.6129 70.8486 85.0704 73.1336L85.4024 73.3602L85.4034 73.3612L134.577 108.09C134.595 108.101 134.614 108.11 134.631 108.122C138.428 110.812 137.577 116.678 133.17 118.176L63.6798 141.786C59.6122 143.17 55.136 142.519 51.626 140.047L51.6251 140.046L2.40828 105.286L2.4073 105.285C-1.33125 102.637 -0.56482 96.9113 3.66413 95.3045L3.86824 95.2303L73.3487 71.6209ZM83.6915 75.2196C80.8762 73.3591 77.359 72.897 74.1544 73.9871H74.1534L4.67195 97.5975C2.19871 98.438 1.71946 101.733 3.85066 103.244L53.0665 138.003L53.336 138.187C56.1515 140.048 59.6701 140.51 62.8751 139.42L132.365 115.809C134.826 114.973 135.313 111.709 133.22 110.187C133.206 110.179 133.191 110.172 133.178 110.163L83.962 75.4041L83.6915 75.2196Z" fill="#1D1D1F"/>
<path d="M38.4499 108.713L19.7441 91.1483L45.5501 82.3848L101.087 101.157L38.4499 108.713Z" fill="#1D1D1F"/>
<path d="M45.2471 81.1721C45.4786 81.1143 45.7228 81.1236 45.9502 81.2004L101.487 99.9729C102.04 100.16 102.391 100.705 102.331 101.285C102.271 101.866 101.817 102.329 101.237 102.399L38.5996 109.954C38.2322 109.999 37.8635 109.879 37.5938 109.625L18.8887 92.0598C18.5687 91.7593 18.4296 91.313 18.5225 90.884C18.6154 90.4551 18.9263 90.1063 19.3418 89.9651L45.1484 81.2014L45.2471 81.1721ZM22.1172 91.6623L38.8799 107.403L95.4658 100.575L45.5498 83.7043L22.1172 91.6623Z" fill="#1D1D1F"/>
<path d="M125.211 111.432C125.865 111.21 126.575 111.56 126.797 112.213C127.019 112.867 126.669 113.577 126.016 113.799L70.3655 132.709C69.7118 132.931 69.0017 132.581 68.7795 131.927C68.5578 131.274 68.9074 130.564 69.5608 130.342L125.211 111.432Z" fill="#1D1D1F"/>
<path d="M52.2527 131.51C52.6503 130.946 53.4295 130.811 53.9939 131.209C56.6562 133.084 60.0485 133.575 63.1296 132.527C63.7831 132.305 64.4933 132.655 64.7156 133.308C64.9378 133.962 64.5878 134.672 63.9343 134.894C60.0938 136.201 55.8683 135.586 52.5544 133.252C51.9901 132.854 51.8551 132.075 52.2527 131.51Z" fill="#1D1D1F"/>
<path d="M8.20781 100.397C8.60624 99.8338 9.38631 99.7002 9.94999 100.098L49.785 128.24C50.3488 128.638 50.4831 129.418 50.0848 129.982C49.6864 130.546 48.9063 130.68 48.3426 130.282L8.50663 102.139C7.9432 101.741 7.80959 100.961 8.20781 100.397Z" fill="#1D1D1F"/>
<path d="M76.1564 4.81445L67.811 5.30871L59.4657 4.81445C59.4657 4.81445 34.5342 94.7313 34.5342 101.157H101.078C101.078 94.7313 76.1468 4.81445 76.1468 4.81445H76.1564Z" fill="#E3E3E3"/>
<path d="M76.1562 3.56471C76.779 3.56471 77.2963 4.02114 77.3896 4.62135C77.3989 4.65483 77.4103 4.69433 77.4229 4.73951C77.47 4.90991 77.5406 5.16254 77.6318 5.49244C77.8145 6.15284 78.0819 7.12275 78.4229 8.35865C79.1047 10.8304 80.0792 14.3684 81.248 18.634C83.5858 27.1655 86.703 38.6088 89.8203 50.2532C92.9372 61.8962 96.0557 73.746 98.3955 83.0891C99.5651 87.7596 100.542 91.8117 101.228 94.9016C101.57 96.4458 101.842 97.7595 102.028 98.7942C102.209 99.7945 102.328 100.627 102.328 101.157C102.328 101.847 101.768 102.407 101.078 102.407H34.5342C33.8438 102.407 33.2842 101.847 33.2842 101.157C33.2842 100.627 33.4034 99.7945 33.584 98.7942C33.7708 97.7595 34.0423 96.4458 34.3848 94.9016C35.0701 91.8117 36.0472 87.7596 37.2168 83.0891C39.5566 73.746 42.6751 61.8962 45.792 50.2532C48.9093 38.6088 52.0266 27.1655 54.3643 18.634C55.5331 14.3684 56.5076 10.8304 57.1895 8.35865C57.5304 7.12275 57.7978 6.15284 57.9805 5.49244C58.0717 5.16255 58.1423 4.90991 58.1895 4.73951C58.2131 4.6543 58.2312 4.58945 58.2432 4.54615C58.2492 4.52454 58.2538 4.50825 58.2568 4.49732C58.2584 4.49186 58.259 4.48738 58.2598 4.48463C58.2601 4.48334 58.2606 4.48236 58.2607 4.4817C58.2611 4.48106 58.2745 4.48439 59.4658 4.81471L58.2607 4.48072C58.4182 3.91283 58.9518 3.53182 59.54 3.56666L67.8105 4.05689L76.082 3.56666V3.56959C76.1035 3.56847 76.1249 3.56471 76.1465 3.56471H76.1562ZM67.8848 6.55689C67.8357 6.5598 67.7864 6.55979 67.7373 6.55689L60.4004 6.12232C60.397 6.13453 60.3941 6.14701 60.3906 6.15943C60.2081 6.81931 59.9404 7.78841 59.5996 9.02369C58.9181 11.4943 57.9438 15.0311 56.7754 19.2952C54.4385 27.8239 51.3226 39.2618 48.207 50.8997C45.0911 62.5388 41.9774 74.3733 39.6426 83.6965C38.475 88.359 37.5043 92.3855 36.8262 95.4426C36.4869 96.9721 36.2224 98.2502 36.0439 99.2385C35.9996 99.484 35.9619 99.7064 35.9297 99.9065H99.6826C99.6504 99.7064 99.6127 99.484 99.5684 99.2385C99.3899 98.2502 99.1263 96.9721 98.7871 95.4426C98.109 92.3855 97.1383 88.359 95.9707 83.6965C93.6359 74.3733 90.5212 62.5389 87.4053 50.8997C84.2897 39.2618 81.1739 27.8239 78.8369 19.2952C77.6685 15.0311 76.6943 11.4943 76.0127 9.02369C75.6719 7.78838 75.4042 6.81931 75.2217 6.15943C75.2182 6.14691 75.2143 6.13462 75.2109 6.12232L67.8848 6.55689Z" fill="#1D1D1F"/>
<path d="M101.068 100.776C101.04 100.263 100.973 99.7593 100.849 99.265C98.3687 85.0266 76.9445 7.65634 76.1841 4.8999C76.1746 4.85238 76.1651 4.81436 76.1651 4.81436C75.6519 2.80881 72.116 1.25 67.8198 1.25C63.5236 1.25 59.9877 2.80881 59.4744 4.81436C59.4744 4.81436 37.3089 84.7605 34.7806 99.265C34.657 99.7593 34.5905 100.273 34.562 100.776C34.5525 100.919 34.543 101.052 34.543 101.157C34.543 110.034 49.4372 117.229 67.8198 117.229C86.2024 117.229 101.097 110.034 101.097 101.157C101.097 101.052 101.097 100.928 101.078 100.776H101.068Z" fill="#FFA855"/>
<path d="M67.8193 0C70.1063 0 72.2384 0.412653 73.9062 1.13184C75.4059 1.77851 76.789 2.79323 77.2881 4.21484L77.376 4.50488L77.3779 4.51172V4.5127L77.3789 4.51367C77.3792 4.51474 77.3795 4.51619 77.3799 4.51758C77.3805 4.52024 77.3809 4.52358 77.3818 4.52734C77.3837 4.53525 77.3858 4.54636 77.3887 4.55859C77.3917 4.57157 77.3946 4.58754 77.3984 4.60547C77.8591 6.27435 83.3639 26.1575 89.0791 47.4531C94.8238 68.8588 100.812 91.803 102.075 99.0234C102.198 99.5308 102.267 100.036 102.303 100.536C102.308 100.564 102.315 100.592 102.318 100.621C102.348 100.857 102.347 101.049 102.347 101.156C102.347 106.346 98.0332 110.683 91.8955 113.647C85.6703 116.654 77.1567 118.479 67.8193 118.479C58.4822 118.479 49.9693 116.654 43.7441 113.647C37.6064 110.683 33.293 106.346 33.293 101.156C33.293 100.999 33.3064 100.814 33.3145 100.693H33.3154C33.3462 100.161 33.4174 99.6014 33.5498 99.0459C34.8281 91.7175 41.0213 68.0368 46.8682 46.2764C49.7976 35.374 52.6478 24.925 54.7656 17.2021C55.8246 13.3406 56.7013 10.1602 57.3125 7.94531C57.618 6.83808 57.8575 5.97211 58.0205 5.38281C58.1019 5.08842 58.164 4.86276 58.2061 4.71094C58.2271 4.63503 58.2432 4.57662 58.2539 4.53809L58.2686 4.48438C58.2689 4.48324 58.2694 4.48205 58.2695 4.48145H58.2705C58.6819 2.9193 60.1416 1.8182 61.7334 1.13184C63.4011 0.412707 65.5325 5.55761e-05 67.8193 0ZM35.793 101.156C35.793 104.844 38.927 108.544 44.832 111.396C50.6494 114.206 58.7745 115.979 67.8193 115.979C76.8644 115.979 84.9901 114.206 90.8076 111.396C96.7126 108.544 99.8467 104.844 99.8467 101.156C99.8467 101.09 99.8424 101.044 99.8398 101.001C99.8306 100.95 99.8232 100.899 99.8203 100.846C99.7952 100.394 99.7374 99.971 99.6367 99.5684C99.6294 99.5391 99.6234 99.5092 99.6182 99.4795C98.3901 92.4309 92.4344 69.6017 86.6641 48.1006C80.9045 26.6396 75.3603 6.61288 74.9795 5.23242C74.9716 5.20371 74.9639 5.17471 74.958 5.14551C74.9566 5.13824 74.9555 5.1303 74.9541 5.12402C74.8436 4.69295 74.2864 4.01864 72.916 3.42773C71.6136 2.86617 69.8285 2.5 67.8193 2.5C65.8104 2.50006 64.0259 2.86622 62.7236 3.42773C61.3533 4.01864 60.796 4.69295 60.6855 5.12402C60.6835 5.13206 60.6809 5.14044 60.6787 5.14844L59.4746 4.81445L60.6787 5.14941C60.6785 5.15001 60.678 5.15126 60.6777 5.15234L60.6631 5.20605C60.6524 5.24448 60.6362 5.30213 60.6152 5.37793C60.5733 5.52949 60.5111 5.75462 60.4297 6.04883C60.2668 6.63767 60.0271 7.50345 59.7217 8.61035C59.1108 10.8242 58.2353 14.0033 57.1768 17.8633C55.0596 25.5835 52.2111 36.0279 49.2832 46.9248C43.4165 68.759 37.2636 92.298 36.0117 99.4795C36.0065 99.5092 36.0005 99.5391 35.9932 99.5684C35.8928 99.9697 35.8347 100.402 35.8096 100.847V100.859C35.7986 101.023 35.793 101.104 35.793 101.156Z" fill="#1D1D1F"/>
<path d="M67.8111 7.0861C70.2783 7.0861 72.2784 6.29032 72.2784 5.30867C72.2784 4.32703 70.2783 3.53125 67.8111 3.53125C65.3438 3.53125 63.3438 4.32703 63.3438 5.30867C63.3438 6.29032 65.3438 7.0861 67.8111 7.0861Z" fill="#1D1D1F"/>
<path d="M92.5993 66.3501C92.5993 72.956 81.4975 78.3168 67.8104 78.3168C54.1233 78.3168 43.0215 72.956 43.0215 66.3501C43.0215 65.8463 43.088 65.3425 43.2116 64.8578C44.1146 61.3885 45.065 57.8241 46.0155 54.2598C45.9965 54.4213 45.987 54.5734 45.987 54.735C45.987 56.3128 46.7094 57.8146 48.0021 59.1548C51.4524 62.7762 59.0278 65.2855 67.8104 65.2855C76.593 65.2855 84.1684 62.7762 87.6187 59.1548C88.9114 57.8146 89.6338 56.3128 89.6338 54.735C89.6338 54.5734 89.6243 54.4213 89.6052 54.2598C90.5557 57.8241 91.5062 61.3885 92.4092 64.8578C92.5328 65.3425 92.5993 65.8463 92.5993 66.3501Z" fill="#E3E3E3"/>
<path d="M91.3496 66.3496C91.3496 65.9573 91.2973 65.5596 91.1992 65.1728L89.8164 59.915C89.7187 59.5466 89.6196 59.1779 89.5215 58.8086C89.2264 59.2309 88.8907 59.6366 88.5186 60.0224L88.5176 60.0214C86.5949 62.0368 83.6246 63.6552 80.0898 64.7705C76.533 65.8926 72.3156 66.5351 67.8105 66.5351C63.3053 66.5351 59.0872 65.8927 55.5303 64.7705C51.9924 63.6542 49.0192 62.0344 47.0967 60.0166V60.0156C46.7266 59.6312 46.3913 59.2282 46.0977 58.8076C45.5288 60.9486 44.9662 63.0746 44.4219 65.166L44.4229 65.167C44.3238 65.5556 44.2715 65.9553 44.2715 66.3496C44.2715 68.9006 46.4563 71.5744 50.8271 73.6845C55.1098 75.7521 61.1133 77.0664 67.8105 77.0664C74.5079 77.0663 80.5113 75.7521 84.7939 73.6845C89.1647 71.5744 91.3496 68.9006 91.3496 66.3496ZM93.8496 66.3496C93.8496 70.4045 90.4827 73.7148 85.8809 75.9365C81.1909 78.2007 74.8001 79.5663 67.8105 79.5664C60.821 79.5664 54.4302 78.2006 49.7402 75.9365C45.1384 73.7148 41.7715 70.4045 41.7715 66.3496C41.7715 65.7367 41.852 65.1292 42 64.5488L42.002 64.5429C42.906 61.0694 43.8573 57.5011 44.8076 53.9375C44.9766 53.3041 45.6062 52.9092 46.25 53.0322C46.8939 53.1553 47.3334 53.7551 47.2568 54.4062C47.2432 54.5225 47.2373 54.6259 47.2373 54.7353C47.2374 55.8329 47.7042 56.9616 48.6963 58.0664L48.9014 58.2871L48.9072 58.2929C50.435 59.8963 52.9754 61.342 56.2832 62.3857C59.5721 63.4234 63.5334 64.0351 67.8105 64.0351C72.0878 64.0351 76.049 63.4234 79.3379 62.3857C82.6458 61.342 85.1861 59.8964 86.7139 58.2929L86.7188 58.2871C87.8519 57.1123 88.3837 55.9061 88.3838 54.7353C88.3838 54.6259 88.3779 54.5225 88.3643 54.4062C88.2877 53.7553 88.7265 53.1555 89.3701 53.0322C90.014 52.9091 90.6445 53.304 90.8135 53.9375C91.2887 55.7194 91.7637 57.5026 92.2334 59.2744L93.6191 64.5429L93.6201 64.5488C93.7681 65.1292 93.8496 65.7367 93.8496 66.3496Z" fill="#1D1D1F"/>
<path d="M85.5374 39.0985C85.4709 43.8035 77.5628 47.615 67.8107 47.615C58.0586 47.615 50.1505 43.8035 50.084 39.108C50.2931 38.3286 50.5022 37.5682 50.7018 36.8078C51.4907 33.8898 52.2606 31.0669 52.9925 28.377C53.021 29.9833 54.1426 31.4661 56.0246 32.6542C58.7335 34.3746 63.0012 35.4771 67.8107 35.4771C72.6202 35.4771 76.8879 34.3746 79.5969 32.6542C81.4788 31.4661 82.6004 29.9833 82.6289 28.377C83.3608 31.0669 84.1307 33.8898 84.9196 36.8078C85.1192 37.5682 85.3283 38.3286 85.5374 39.0985Z" fill="#E3E3E3"/>
<path d="M82.4747 27.1366C83.092 27.0598 83.6718 27.4485 83.8351 28.0487C84.5667 30.7376 85.3369 33.5621 86.1261 36.4814L86.129 36.4901C86.3268 37.2437 86.5338 37.9954 86.7443 38.7704C86.7748 38.8829 86.7889 38.9996 86.7872 39.1161C86.7435 42.2099 84.1683 44.6511 80.8478 46.248C77.4407 47.8863 72.8327 48.8651 67.8107 48.8651C62.7885 48.8651 58.1804 47.886 54.7736 46.2489C51.4542 44.6538 48.878 42.2155 48.8341 39.1259C48.8325 39.0106 48.8472 38.8955 48.8771 38.7841C49.0891 37.9937 49.2946 37.2471 49.4933 36.4901L49.4952 36.4814L51.7863 28.0487C51.9496 27.4484 52.5302 27.0597 53.1476 27.1366C53.7647 27.2137 54.2311 27.7326 54.2423 28.3544C54.2589 29.2878 54.8827 30.3649 56.381 31.3925L56.6915 31.5976L56.6945 31.5985C59.1445 33.1546 63.1583 34.2274 67.8107 34.2275C72.4631 34.2275 76.4768 33.1546 78.9269 31.5985L78.9298 31.5976C80.6534 30.5094 81.3614 29.35 81.379 28.3544L81.3868 28.2392C81.4496 27.6694 81.896 27.2087 82.4747 27.1366ZM82.3224 32.0155C81.7461 32.6518 81.0421 33.2195 80.2638 33.7109C77.296 35.5944 72.7755 36.7275 67.8107 36.7275C62.8458 36.7274 58.3253 35.5945 55.3575 33.7109L54.9806 33.4638C54.351 33.0322 53.7799 32.5478 53.298 32.0155C52.8452 33.6795 52.3805 35.3846 51.9103 37.1239L51.9113 37.1249C51.7268 37.8276 51.5305 38.5393 51.34 39.247C51.4493 40.8132 52.8676 42.5597 55.8566 43.996C58.8583 45.4385 63.0809 46.3651 67.8107 46.3651C72.5406 46.3651 76.7632 45.4375 79.7648 43.9941C82.7525 42.5572 84.1708 40.8095 84.2804 39.2382C84.09 38.5383 83.8972 37.8353 83.713 37.1337C83.2419 35.391 82.776 33.6827 82.3224 32.0155Z" fill="#1D1D1F"/>
</svg>
