<svg width="12" height="12" viewBox="0 0 12 12" fill="none" xmlns="http://www.w3.org/2000/svg">
<g clip-path="url(#clip0_19023_30298)">
<path d="M8.96041 9.91574L10.7727 11.728L11.7273 10.7734L1.2273 0.273438L0.272703 1.22803L1.81834 2.77367C0.696772 3.59131 0 4.735 0 6.00073C0 8.48602 2.68629 10.5007 6 10.5007C7.07656 10.5007 8.0869 10.2881 8.96041 9.91574ZM7.97004 8.92537C7.37709 9.11589 6.71186 9.22573 6 9.22573C4.59234 9.22573 3.36702 8.79621 2.52236 8.16272C1.67809 7.52951 1.275 6.75208 1.275 6.00073C1.275 5.24939 1.67809 4.47196 2.52236 3.83875C2.59052 3.78763 2.66116 3.73784 2.73417 3.6895L4.53826 5.49359C4.51323 5.65657 4.5 5.82633 4.5 6.00072C4.5 7.24336 5.17157 8.25072 6 8.25072C6.32615 8.25072 6.62798 8.09458 6.87409 7.82942L7.97004 8.92537ZM11.1438 8.31872C11.6874 7.6417 12 6.8486 12 6.00073C12 3.51545 9.31371 1.50073 6 1.50073C5.47228 1.50073 4.96046 1.55183 4.47288 1.64779L5.61181 2.78672C5.73952 2.77946 5.86897 2.77573 6 2.77573C7.40766 2.77573 8.63298 3.20526 9.47764 3.83875C10.3219 4.47196 10.725 5.24939 10.725 6.00073C10.725 6.47432 10.5649 6.95827 10.235 7.40993L11.1438 8.31872Z" fill="black"/>
</g>
<defs>
<clipPath id="clip0_19023_30298">
<rect width="12" height="12" fill="white"/>
</clipPath>
</defs>
</svg>
