<svg preserveAspectRatio="none" width="100%" height="100%" overflow="visible" style="display: block;" viewBox="0 0 20 20" fill="none" xmlns="http://www.w3.org/2000/svg">
<g id="IMDb_Circle_GoldBKG 1" clip-path="url(#clip0_0_298)">
<path id="Circle_f5c518" d="M10.008 20.032C15.5308 20.032 20.008 15.5548 20.008 10.032C20.008 4.50915 15.5308 0.032 10.008 0.032C4.48515 0.032 0.008 4.50915 0.008 10.032C0.008 15.5548 4.48515 20.032 10.008 20.032Z" fill="var(--fill-0, #F5C518)"/>
<path id="IMDb_Logo" d="M4.256 6.984V12.896H2.72V6.984H4.256ZM7.536 6.984L7.184 9.752L6.968 8.248C6.904 7.768 6.84 7.344 6.784 6.984H4.792V12.896H6.136V8.992L6.704 12.896H7.664L8.2 8.904V12.896H9.544V6.984H7.536ZM10.064 12.904V6.992H11.208C11.952 6.992 12.384 7.024 12.64 7.096C12.904 7.168 13.104 7.28 13.24 7.432C13.376 7.584 13.464 7.76 13.496 7.952C13.528 8.144 13.552 8.52 13.552 9.08V11.16C13.552 11.688 13.52 12.048 13.472 12.224C13.424 12.4 13.336 12.544 13.208 12.64C13.088 12.744 12.928 12.816 12.752 12.856C12.568 12.896 12.296 12.92 11.928 12.92H10.064V12.904ZM11.6 8V11.88C11.824 11.88 11.952 11.84 12.008 11.752C12.056 11.664 12.088 11.424 12.088 11.024V8.736C12.088 8.472 12.08 8.296 12.064 8.224C12.048 8.144 12.008 8.096 11.944 8.056C11.88 8.016 11.768 8 11.6 8ZM15.552 6.984V8.912C15.672 8.768 15.816 8.664 15.96 8.6C16.112 8.528 16.336 8.496 16.512 8.496C16.688 8.496 16.888 8.528 17.04 8.592C17.192 8.656 17.304 8.744 17.384 8.856C17.464 8.968 17.512 9.08 17.528 9.192C17.544 9.304 17.552 9.536 17.552 9.888V11.544C17.552 11.896 17.528 12.16 17.48 12.336C17.432 12.512 17.32 12.664 17.144 12.784C16.968 12.912 16.76 12.976 16.512 12.976C16.264 12.976 16.112 12.936 15.96 12.864C15.808 12.784 15.672 12.672 15.544 12.52L15.448 12.896H14.064V6.984H15.544H15.552ZM16.072 9.952C16.072 9.704 16.056 9.536 16.024 9.464C15.992 9.392 15.864 9.352 15.768 9.352C15.672 9.352 15.616 9.384 15.592 9.456C15.568 9.528 15.552 9.688 15.552 9.96V11.52C15.552 11.784 15.568 11.944 15.6 12.016C15.632 12.088 15.688 12.128 15.784 12.128C15.88 12.128 16 12.088 16.032 12.016C16.064 11.944 16.072 11.76 16.072 11.472V9.952Z" fill="var(--fill-0, #161616)"/>
</g>
<defs>
<clipPath id="clip0_0_298">
<rect width="20" height="20" fill="white"/>
</clipPath>
</defs>
</svg>
