<svg preserveAspectRatio="none" width="100%" height="100%" overflow="visible" style="display: block;" viewBox="0 0 11.7 15.85" fill="none" xmlns="http://www.w3.org/2000/svg">
<path id="Vector" d="M7.05 7C7.05 7.66274 6.51274 8.2 5.85 8.2C5.18726 8.2 4.65 7.66274 4.65 7V3C4.65 2.33726 5.18726 1.8 5.85 1.8C6.51274 1.8 7.05 2.33726 7.05 3V7ZM5.85 0C4.19315 0 2.85 1.34315 2.85 3V7C2.85 8.65685 4.19315 10 5.85 10C7.50685 10 8.85 8.65685 8.85 7V3C8.85 1.34315 7.50685 0 5.85 0ZM1.7 5.15V7C1.7 9.29198 3.55802 11.15 5.85 11.15C8.14198 11.15 10 9.29198 10 7V5.15H11.7V7C11.7 9.94217 9.52802 12.377 6.7 12.7887L6.7 15.85L5 15.85V12.7887C2.17198 12.377 0 9.94217 0 7V5.15H1.7Z" fill="var(--fill-0, #444444)"/>
</svg>
