<svg xmlns="http://www.w3.org/2000/svg" viewBox="0 0 24 24" width="24" height="24">
  <circle cx="12" cy="14" r="9.5" fill="#FA320A"/>
  <path d="M10.5 3.5C10.2 2.5 11 1.8 11.8 2.2c.5.3.7.8.6 1.3" fill="none" stroke="#008001" stroke-width="1.2"/>
  <path d="M13.5 2c.3-.6 1-.8 1.4-.4s.3 1.1-.1 1.5" fill="none" stroke="#008001" stroke-width="1.2"/>
  <path d="M8.5 4.5c-.5-.3-.4-1 .1-1.2s1 .1 1.1.6" fill="none" stroke="#008001" stroke-width="1.2"/>
  <path d="M9 5c.8.2 1.6.1 2.2-.2.6-.3 1.2-.3 1.8 0 .5.3 1.1.4 1.7.2" fill="none" stroke="#008001" stroke-width="1.5" stroke-linecap="round"/>
  <ellipse cx="12" cy="14.5" rx="5.5" ry="5" fill="#FA320A"/>
</svg>
