<svg xmlns="http://www.w3.org/2000/svg" viewBox="0 0 24 24" width="24" height="24">
  <path d="M14.4 1.2c-.4-.8-1.6-.4-1.6.4v.6c0 .4-.2.8-.6.8-.2 0-.4-.2-.6-.4-.4-.6-1.4-.4-1.4.4 0 .4.2.8.2 1.2-.6-.4-1.4-.4-1.4.4 0 .6.6 1 1 1.4-.2 0-.4 0-.6.2-.4.2-.4.8 0 1" fill="#008001"/>
  <path d="M12 6C7 6 3 10 3 14.5S7 23 12 23s9-4 9-8.5S17 6 12 6z" fill="#F93208"/>
  <path d="M9.2 4.8c.2.4.6.8 1 1 .2.2.4.2.6.2.4 0 .6-.4.6-.8v-.6c0-.8 1.2-1.2 1.6-.4.2.4.4.8.4 1.2.6-.4 1.4-.2 1.4.6 0 .4-.2.8-.4 1 .2 0 .4.2.6.4" fill="#008001"/>
</svg>
