<svg width="80" height="88" viewBox="0 0 80 88" fill="none" xmlns="http://www.w3.org/2000/svg">
<path d="M0 40C0 17.9086 17.9086 0 40 0V0C62.0914 0 80 17.9086 80 40V40C80 62.0914 62.0914 80 40 80V80C17.9086 80 0 62.0914 0 40V40Z" fill="white"/>
<path d="M41.6623 32.5245C41.6622 31.6067 40.918 30.8625 40.0002 30.8624C39.0822 30.8624 38.3376 31.6066 38.3375 32.5245C38.3375 33.4426 39.0821 34.1873 40.0002 34.1873C40.9181 34.1871 41.6623 33.4425 41.6623 32.5245ZM42.2864 32.5245C42.2864 33.7873 41.2629 34.8112 40.0002 34.8113C38.7373 34.8113 37.7134 33.7874 37.7134 32.5245C37.7135 31.2618 38.7374 30.2383 40.0002 30.2383C41.2628 30.2384 42.2863 31.2619 42.2864 32.5245Z" fill="#1D1D1F"/>
<path d="M39.9999 49.7615C41.0904 49.7615 41.9743 48.8775 41.9743 47.787C41.9743 46.6965 41.0904 45.8125 39.9999 45.8125C38.9094 45.8125 38.0254 46.6965 38.0254 47.787C38.0254 48.8775 38.9094 49.7615 39.9999 49.7615Z" fill="#EAE4F8"/>
<path d="M40.0001 86.7497C57.975 86.7497 72.5466 83.0566 72.5466 78.5008C72.5466 73.9451 57.975 70.252 40.0001 70.252C22.0252 70.252 7.45361 73.9451 7.45361 78.5008C7.45361 83.0566 22.0252 86.7497 40.0001 86.7497Z" fill="#1D1D1F"/>
<path d="M72.2013 78.4987C72.2012 77.5575 71.4406 76.5624 69.8125 75.5867C68.2067 74.6245 65.8599 73.7459 62.9299 73.0032C57.0749 71.5193 48.9676 70.5976 40 70.5976C31.0326 70.5976 22.9258 71.5193 17.0708 73.0032C14.1407 73.7459 11.7935 74.6244 10.1876 75.5867C8.55948 76.5623 7.79891 77.5575 7.7988 78.4987C7.7988 79.4398 8.55949 80.4349 10.1876 81.4106C11.7935 82.3729 14.1407 83.2521 17.0708 83.9947C22.9258 85.4786 31.0326 86.3997 40 86.3997C48.9676 86.3997 57.0749 85.4786 62.9299 83.9947C65.8599 83.2521 68.2067 82.3729 69.8125 81.4106C71.4406 80.4349 72.2013 79.4398 72.2013 78.4987ZM72.8917 78.4987C72.8917 79.8353 71.8311 81.0103 70.1656 82.0083C68.4776 83.0198 66.0575 83.9189 63.0979 84.669C57.1734 86.1705 49.0072 87.0956 40 87.0956C30.9928 87.0956 22.8267 86.1705 16.9022 84.669C13.9426 83.9189 11.5225 83.0198 9.83445 82.0083C8.16904 81.0103 7.1084 79.8352 7.1084 78.4987C7.10851 77.1621 8.16902 75.987 9.83445 74.989C11.5225 73.9775 13.9426 73.0791 16.9022 72.329C22.8267 70.8274 30.9928 69.9023 40 69.9023C49.0073 69.9023 57.1734 70.8274 63.0979 72.329C66.0575 73.0791 68.4776 73.9775 70.1656 74.989C71.8311 75.987 72.8916 77.1621 72.8917 78.4987Z" fill="#1D1D1F"/>
<path d="M58.2337 68.2676H21.7609C21.7609 68.2676 15.0659 73.5084 15.0659 78.5017C15.0659 82.9341 26.2278 86.5306 39.9946 86.5306C53.7613 86.5306 64.9232 82.9341 64.9232 78.5017C64.9232 73.5084 58.2282 68.2676 58.2282 68.2676H58.2337Z" fill="#CDCDCD"/>
<path d="M64.5781 78.5014C64.578 76.1415 62.9829 73.6678 61.3156 71.7408C60.4902 70.7869 59.6637 69.9856 59.0432 69.4228C58.7333 69.1416 58.4751 68.9206 58.2952 68.7702C58.217 68.7048 58.1535 68.6529 58.107 68.6152H21.8823C21.8358 68.6529 21.7722 68.7048 21.694 68.7702C21.5141 68.9206 21.2559 69.1417 20.946 69.4228C20.3256 69.9856 19.499 70.7869 18.6737 71.7408C17.0063 73.6679 15.4112 76.1415 15.4111 78.5014C15.4111 79.4509 16.0094 80.4166 17.2334 81.3485C18.4517 82.2761 20.2364 83.1264 22.4727 83.8468C26.9416 85.2863 33.1369 86.1826 39.9946 86.1826C46.8522 86.1826 53.047 85.2862 57.5159 83.8468C59.7523 83.1264 61.5375 82.2761 62.7559 81.3485C63.9798 80.4166 64.5781 79.4509 64.5781 78.5014ZM65.2685 78.5014C65.2685 79.7681 64.4712 80.9146 63.1722 81.9036C61.8675 82.8969 60.0015 83.7765 57.7268 84.5093C53.1731 85.9761 46.9036 86.8785 39.9946 86.8785C33.0856 86.8785 26.8162 85.9761 22.2624 84.5093C19.9877 83.7766 18.1217 82.8969 16.8171 81.9036C15.518 80.9146 14.7207 79.7681 14.7207 78.5014C14.7208 75.8683 16.4732 73.2253 18.1531 71.2839C19.0015 70.3034 19.8488 69.4819 20.4837 68.906C20.8013 68.6179 21.0664 68.3905 21.2526 68.2348C21.3456 68.157 21.4191 68.0971 21.4696 68.0564C21.4948 68.036 21.5145 68.0207 21.5279 68.0101C21.5345 68.0048 21.5396 68.0005 21.5432 67.9977C21.545 67.9963 21.5465 67.9954 21.5475 67.9946L21.5481 67.9934H21.5487V67.9928C21.6093 67.9453 21.6841 67.9199 21.7609 67.9199H58.2339L58.3032 67.9267C58.3725 67.941 58.4336 67.9769 58.481 68.0261C58.4917 68.0347 58.5049 68.0445 58.5196 68.0564C58.5701 68.0971 58.6436 68.157 58.7367 68.2348C58.9229 68.3905 59.1879 68.6179 59.5056 68.906C60.1404 69.4819 60.9878 70.3034 61.8361 71.2839C63.516 73.2253 65.2684 75.8683 65.2685 78.5014Z" fill="#1D1D1F"/>
<path d="M40.0001 73.8988C57.975 73.8988 72.5466 59.2247 72.5466 41.1232C72.5466 23.0218 57.975 8.34766 40.0001 8.34766C22.0252 8.34766 7.45361 23.0218 7.45361 41.1232C7.45361 59.2247 22.0252 73.8988 40.0001 73.8988Z" fill="#FFE957"/>
<path d="M72.2013 41.1232C72.2013 23.2138 57.7842 8.69526 40 8.69526C22.2159 8.69528 7.79882 23.2138 7.7988 41.1232C7.7988 59.0326 22.2159 73.5511 40 73.5511C57.7843 73.5511 72.2013 59.0326 72.2013 41.1232ZM72.8917 41.1232C72.8917 59.4167 58.1657 74.2464 40 74.2464C21.8344 74.2463 7.1084 59.4167 7.1084 41.1232C7.10842 22.8297 21.8344 8.00002 40 8C58.1657 8 72.8917 22.8297 72.8917 41.1232Z" fill="#1D1D1F"/>
<path d="M43.1836 69.1107C41.8894 67.1199 47.8963 66.1191 53.6465 62.3356C59.3968 58.5521 62.7169 53.4158 64.0111 55.4065C65.3054 57.3972 61.9852 62.539 56.2349 66.3225C50.4847 70.106 44.4723 71.1014 43.1836 69.1107Z" fill="#1D1D1F"/>
<path d="M62.5147 54.7975C62.8379 54.653 63.1714 54.573 63.4939 54.6339C63.8308 54.6975 64.0984 54.9039 64.3002 55.2143C64.7008 55.8304 64.7158 56.6421 64.4848 57.5081C64.2519 58.3809 63.756 59.3658 63.0488 60.3892C61.6327 62.4384 59.3308 64.6997 56.4243 66.612C53.5179 68.5244 50.5361 69.7383 48.1033 70.2211C46.8883 70.4622 45.7936 70.5246 44.9064 70.389C44.0261 70.2545 43.2937 69.915 42.8946 69.2986L42.8953 69.298C42.6939 68.9878 42.6128 68.6591 42.6899 68.323C42.7637 68.0011 42.9702 67.7257 43.2313 67.4857C43.7471 67.0116 44.6052 66.5611 45.6274 66.0785C47.7064 65.097 50.6097 63.9168 53.4579 62.0428C56.3062 60.1687 58.545 57.9654 60.2724 56.4424C61.1218 55.6935 61.8761 55.083 62.5147 54.7975ZM63.367 55.3174C63.2379 55.293 63.0547 55.3173 62.7949 55.4335C62.2673 55.6694 61.5886 56.2061 60.7274 56.9654C59.0336 58.4587 56.7375 60.7157 53.8356 62.6251C50.9339 64.5343 47.959 65.7459 45.9205 66.7083C44.8841 67.1977 44.1234 67.6078 43.6973 67.9995C43.4874 68.1923 43.3919 68.3513 43.3625 68.4798C43.3364 68.5939 43.3513 68.7312 43.4728 68.9182L43.4735 68.9189C43.7187 69.2977 44.2209 69.5806 45.01 69.7012C45.7923 69.8207 46.8018 69.7706 47.9697 69.5388C50.3028 69.0757 53.2029 67.9009 56.0466 66.0297C58.8904 64.1586 61.1236 61.9568 62.4816 59.9916C63.1614 59.0079 63.6123 58.0973 63.8177 57.3278C64.0247 56.5518 63.9691 55.9744 63.7226 55.5952C63.601 55.4081 63.4817 55.3391 63.367 55.3174Z" fill="#1D1D1F"/>
<path d="M36.8161 13.4872C38.1103 15.4779 32.1034 16.4788 26.3532 20.2623C20.6029 24.0458 17.2828 29.1821 15.9886 27.1914C14.6943 25.2006 18.0145 20.0588 23.7648 16.2753C29.515 12.4918 35.5274 11.4965 36.8161 13.4872Z" fill="white"/>
<path d="M62.8194 74.4293C62.8194 73.938 62.6488 73.4459 62.305 72.9592C62.1945 72.8027 62.2305 72.5858 62.3859 72.4745C62.5413 72.3631 62.7567 72.4001 62.8672 72.5566C63.2769 73.1365 63.5104 73.7661 63.5104 74.4293C63.5104 75.2951 63.1103 76.1023 62.4288 76.8294C61.7489 77.5549 60.7718 78.2208 59.5655 78.817C59.3943 78.9015 59.1871 78.8301 59.1031 78.6577C59.0192 78.4853 59.0902 78.2768 59.2613 78.1922C60.4248 77.6171 61.3234 76.9959 61.9267 76.3521C62.5285 75.7099 62.8194 75.0649 62.8194 74.4293Z" fill="#1D1D1F"/>
<path d="M16.4902 74.4275C16.4903 73.7634 16.724 73.1397 17.1322 72.5559C17.2419 72.399 17.457 72.361 17.6129 72.4714C17.7688 72.5819 17.8065 72.799 17.6969 72.9561C17.3516 73.45 17.1807 73.9369 17.1806 74.4275C17.1806 75.063 17.4716 75.7081 18.0734 76.3503C18.6767 76.9941 19.5758 77.6152 20.7393 78.1903C20.9105 78.2749 20.9809 78.4835 20.8969 78.6559C20.8129 78.8283 20.6058 78.8998 20.4346 78.8152C19.2282 78.2189 18.2511 77.553 17.5712 76.8276C16.8898 76.1005 16.4902 75.2931 16.4902 74.4275Z" fill="#1D1D1F"/>
<path d="M59.2612 78.1898C59.4324 78.1053 59.6395 78.1768 59.7235 78.3491C59.8074 78.5215 59.7365 78.7301 59.5653 78.8147C55.3698 80.888 48.1564 82.2428 40.0004 82.2429C31.8444 82.2429 24.6305 80.8931 20.4294 78.8141C20.2582 78.7294 20.1877 78.5215 20.2718 78.3491C20.3559 78.1768 20.5623 78.1058 20.7335 78.1905C24.8 80.2029 31.8941 81.5476 40.0004 81.5476C48.1063 81.5476 55.2 80.1969 59.2612 78.1898Z" fill="#1D1D1F"/>
<path d="M16.8842 37.6912C17.6865 37.6912 18.3368 37.0363 18.3368 36.2284C18.3368 35.4205 17.6865 34.7656 16.8842 34.7656C16.082 34.7656 15.4316 35.4205 15.4316 36.2284C15.4316 37.0363 16.082 37.6912 16.8842 37.6912Z" fill="#E5B917"/>
<path d="M17.992 36.2284C17.992 35.6126 17.4962 35.1132 16.8847 35.1132C16.2732 35.1132 15.7773 35.6126 15.7773 36.2284C15.7773 36.8442 16.2732 37.3435 16.8847 37.3435C17.4962 37.3435 17.992 36.8442 17.992 36.2284ZM18.6824 36.2284C18.6824 37.2283 17.8776 38.0388 16.8847 38.0388C15.8917 38.0388 15.0869 37.2283 15.0869 36.2284C15.0869 35.2285 15.8917 34.418 16.8847 34.418C17.8776 34.418 18.6824 35.2284 18.6824 36.2284Z" fill="#1D1D1F"/>
<path d="M59.8281 24.869C60.6303 24.869 61.2806 24.214 61.2806 23.4062C61.2806 22.5983 60.6303 21.9434 59.8281 21.9434C59.0258 21.9434 58.3755 22.5983 58.3755 23.4062C58.3755 24.214 59.0258 24.869 59.8281 24.869Z" fill="#E5B917"/>
<path d="M60.9354 23.4061C60.9353 22.7903 60.4395 22.291 59.828 22.291C59.2165 22.291 58.7207 22.7903 58.7207 23.4061C58.7207 24.0219 59.2165 24.5212 59.828 24.5212C60.4395 24.5212 60.9354 24.0219 60.9354 23.4061ZM61.6258 23.4061C61.6258 24.406 60.821 25.2165 59.828 25.2165C58.8351 25.2165 58.0303 24.406 58.0303 23.4061C58.0303 22.4062 58.8351 21.5957 59.828 21.5957C60.821 21.5957 61.6257 22.4062 61.6258 23.4061Z" fill="#1D1D1F"/>
<path d="M41.9115 14.9383C43.2386 14.9383 44.3143 14.0864 44.3143 13.0356C44.3143 11.9847 43.2386 11.1328 41.9115 11.1328C40.5845 11.1328 39.5088 11.9847 39.5088 13.0356C39.5088 14.0864 40.5845 14.9383 41.9115 14.9383Z" fill="white"/>
<path d="M38.2905 71.202C39.6175 71.202 40.6932 70.3501 40.6932 69.2992C40.6932 68.2484 39.6175 67.3965 38.2905 67.3965C36.9634 67.3965 35.8877 68.2484 35.8877 69.2992C35.8877 70.3501 36.9634 71.202 38.2905 71.202Z" fill="#1D1D1F"/>
<path d="M40.3482 69.2995C40.3482 68.5139 39.5092 67.7442 38.2911 67.7441C37.0729 67.7441 36.2334 68.5139 36.2334 69.2995C36.2336 70.085 37.073 70.8543 38.2911 70.8543C39.5091 70.8542 40.348 70.0849 40.3482 69.2995ZM41.0392 69.2995C41.039 70.6154 39.7267 71.5494 38.2911 71.5495C36.8554 71.5495 35.5432 70.6155 35.543 69.2995C35.543 67.9833 36.8553 67.0488 38.2911 67.0488C39.7268 67.0489 41.0392 67.9834 41.0392 69.2995Z" fill="#1D1D1F"/>
<path fill-rule="evenodd" clip-rule="evenodd" d="M36.7003 30.1875C39.6361 26.9913 42.1305 23.8286 44.3169 24.5408C46.503 25.2533 46.6486 29.2748 47.1358 33.5852C47.4371 36.2747 48.7056 38.7714 50.7023 40.6034H50.7001C53.898 43.5391 57.0608 46.0337 56.349 48.22C55.6366 50.4062 51.6145 50.5535 47.3039 51.039C44.6144 51.3402 42.1177 52.6087 40.2857 54.6054C37.3499 57.8017 34.8554 60.9644 32.6691 60.2521C30.4829 59.5398 30.3373 55.5182 29.8501 51.2078C29.5489 48.5183 28.2804 46.0216 26.2837 44.1896C23.0876 41.2557 19.9271 38.7592 20.637 36.573C21.3474 34.3866 25.3714 34.2412 29.6821 33.754C32.3715 33.4528 34.8701 32.1842 36.7003 30.1875ZM36.3473 45.4032C35.1196 45.4033 34.1326 46.4328 34.1326 47.634C34.1328 48.8351 35.0473 49.7887 36.275 49.7888C37.5025 49.7886 38.4909 48.7784 38.4912 47.558C38.4912 46.3373 37.5766 45.4032 36.3488 45.4032H36.3473ZM38.8243 36.0732L35.3251 44.5812H39.235L42.7342 36.0732H38.8243Z" fill="#7D2EFF"/>
<path d="M36.3488 45.4032C37.5766 45.4032 38.4912 46.3373 38.4912 47.558C38.4909 48.7784 37.5025 49.7886 36.275 49.7888C35.0473 49.7887 34.1328 48.8351 34.1326 47.634C34.1326 46.4328 35.1196 45.4033 36.3473 45.4032H36.3488Z" fill="white"/>
<path d="M39.235 44.5812H35.3251L38.8243 36.0732H42.7342L39.235 44.5812Z" fill="white"/>
<path d="M65.07 39.8148C66.5371 39.8148 67.7264 38.8187 67.7264 37.59C67.7264 36.3613 66.5371 35.3652 65.07 35.3652C63.6029 35.3652 62.4136 36.3613 62.4136 37.59C62.4136 38.8187 63.6029 39.8148 65.07 39.8148Z" fill="#E5B917"/>
</svg>
