<svg preserveAspectRatio="none" width="100%" height="100%" overflow="visible" style="display: block;" viewBox="0 0 20 20" fill="none" xmlns="http://www.w3.org/2000/svg">
<g id="Vector">
<path fill-rule="evenodd" clip-rule="evenodd" d="M9.00154 3.20102C10.6364 1.42108 12.0256 -0.340174 13.2431 0.0564646C14.4605 0.453194 14.5416 2.6927 14.8129 5.09312C14.9807 6.59085 15.6871 7.98125 16.799 9.00144H16.7978C18.5787 10.6363 20.34 12.0255 19.9436 13.243C19.5469 14.4605 17.307 14.5425 14.9065 14.8128C13.4088 14.9806 12.0184 15.687 10.9982 16.7989C9.36334 18.5789 7.97417 20.3401 6.75664 19.9435C5.5392 19.5468 5.45811 17.3073 5.18681 14.9068C5.01908 13.4091 4.31266 12.0187 3.20071 10.9985C1.42089 9.36472 -0.33918 7.97444 0.0561536 6.75696C0.451804 5.53942 2.69268 5.45845 5.09322 5.18712C6.59093 5.01938 7.98233 4.31294 9.00154 3.20102ZM8.805 11.6744C8.12127 11.6744 7.57167 12.2477 7.57167 12.9167C7.57176 13.5855 8.08104 14.1166 8.76472 14.1166C9.44831 14.1165 9.99871 13.554 9.99886 12.8744C9.99886 12.1945 9.48957 11.6744 8.80581 11.6744H8.805ZM10.1844 6.47863L8.23574 11.2166H10.4131L12.3617 6.47863H10.1844Z" fill="#7D2EFF"/>
<path d="M8.80581 11.6744C9.48957 11.6744 9.99886 12.1945 9.99886 12.8744C9.99871 13.554 9.44831 14.1165 8.76472 14.1166C8.08104 14.1166 7.57176 13.5855 7.57167 12.9167C7.57167 12.2477 8.12127 11.6744 8.805 11.6744H8.80581Z" fill="var(--fill-0, white)"/>
<path d="M10.4131 11.2166H8.23574L10.1844 6.47863H12.3617L10.4131 11.2166Z" fill="var(--fill-0, white)"/>
</g>
</svg>
