<svg width="16" height="16" viewBox="0 0 16 16" fill="none" xmlns="http://www.w3.org/2000/svg">
<path fill-rule="evenodd" clip-rule="evenodd" d="M7.20123 2.56082C8.50915 1.13687 9.62045 -0.272139 10.5945 0.0451717C11.5684 0.362556 11.6333 2.15416 11.8504 4.0745C11.9846 5.27268 12.5497 6.385 13.4392 7.20115H13.4383C14.8629 8.509 16.272 9.62041 15.9549 10.5944C15.6375 11.5684 13.8456 11.634 11.9252 11.8503C10.727 11.9845 9.61473 12.5496 8.79857 13.4392C7.49067 14.8631 6.37934 16.2721 5.40532 15.9548C4.43136 15.6375 4.36649 13.8458 4.14945 11.9255C4.01526 10.7273 3.45013 9.61499 2.56057 8.79882C1.13671 7.49177 -0.271344 6.37955 0.0449229 5.40556C0.361443 4.43153 2.15414 4.36676 4.07458 4.1497C5.27274 4.0155 6.38586 3.45035 7.20123 2.56082ZM7.044 9.33951C6.49701 9.33954 6.05734 9.79818 6.05734 10.3333C6.05741 10.8684 6.46483 11.2933 7.01177 11.2933C7.55864 11.2932 7.99897 10.8432 7.99909 10.2995C7.99909 9.75563 7.59166 9.33951 7.04465 9.33951H7.044ZM8.14752 5.18291L6.58859 8.9733H8.33047L9.8894 5.18291H8.14752Z" fill="#7D2EFF"/>
<path d="M7.04465 9.33951C7.59166 9.33951 7.99909 9.75563 7.99909 10.2995C7.99897 10.8432 7.55864 11.2932 7.01177 11.2933C6.46483 11.2933 6.05741 10.8684 6.05734 10.3333C6.05734 9.79818 6.49701 9.33954 7.044 9.33951H7.04465Z" fill="white"/>
<path d="M8.33047 8.9733H6.58859L8.14752 5.18291H9.8894L8.33047 8.9733Z" fill="white"/>
</svg>
