<svg width="20" height="20" viewBox="0 0 20 20" fill="none" xmlns="http://www.w3.org/2000/svg">
<circle cx="10" cy="10" r="10" fill="#6001D2"/>
<path d="M5.5 8.5L7.2 11.5L8.8 8.5H10.2L7.8 13H6.6L4.1 8.5H5.5ZM10.5 11.4C10.5 10.5 11.1 9.9 12 9.9C12.5 9.9 12.9 10.1 13.1 10.4V10H14.1V13H13.1V12.6C12.9 12.9 12.5 13.1 12 13.1C11.1 13.1 10.5 12.4 10.5 11.4ZM13.1 11.5C13.1 10.9 12.7 10.6 12.2 10.6C11.7 10.6 11.4 10.9 11.4 11.5C11.4 12 11.7 12.4 12.2 12.4C12.7 12.4 13.1 12 13.1 11.5ZM14.8 8.5H15.8V13H14.8V8.5Z" fill="white"/>
<path d="M6.2 14.5C6.6 14.8 7.1 15 7.7 15C8.6 15 9.1 14.5 9.1 13.7V13.3C8.8 13.6 8.4 13.8 7.9 13.8C7 13.8 6.4 13.1 6.4 12.2C6.4 11.2 7 10.6 7.9 10.6C8.4 10.6 8.8 10.8 9.1 11.1V10.7H10V13.6C10 15 9.2 15.7 7.7 15.7C7 15.7 6.4 15.5 6 15.2L6.2 14.5ZM9.1 12.1C9.1 11.6 8.7 11.3 8.2 11.3C7.7 11.3 7.3 11.6 7.3 12.1C7.3 12.7 7.7 13 8.2 13C8.7 13 9.1 12.7 9.1 12.1Z" fill="white"/>
</svg>
