<svg width="20" height="20" viewBox="0 0 20 20" fill="none" xmlns="http://www.w3.org/2000/svg">
<path d="M0 10C0 4.47715 4.47715 0 10 0C15.5228 0 20 4.47715 20 10C20 15.5228 15.5228 20 10 20C4.47715 20 0 15.5228 0 10Z" fill="#7D2EFF"/>
<path d="M8.0532 12.4555C7.02269 12.4555 6.25 13.2886 6.25 14.2583C6.25 15.2122 6.99241 16 7.9928 16C9.02244 16 9.79515 15.1821 9.79515 14.1974C9.79513 13.2282 9.05252 12.4555 8.0532 12.4555Z" fill="white"/>
<path d="M10.3908 4L7.28506 11.5H10.5551L13.6617 4H10.3908Z" fill="white"/>
</svg>
