<svg width="16" height="26" viewBox="0 0 16 26" fill="none" xmlns="http://www.w3.org/2000/svg">
<g clip-path="url(#clip0_18921_167047)">
<path d="M3.21878 19.5039C1.38139 19.5039 0 21.0285 0 22.8003C0 24.5721 1.32774 25.9867 3.11148 25.9867C4.89522 25.9867 6.33026 24.4896 6.33026 22.6904C6.33026 20.9186 5.00251 19.5039 3.21878 19.5039Z" fill="#7D2EFF"/>
<path d="M9.65612 0.522076C6.7324 -0.205869 4.57313 -0.0822554 3.01739 0.329789L1.85059 5.21938L2.05176 5.41167C3.56727 4.95842 4.98889 4.73866 6.94698 5.13697C7.12133 5.17818 7.28227 5.17818 7.45662 5.23312C9.26718 5.68637 9.8707 6.78515 9.57565 7.98008C9.25377 9.35356 8.43567 9.91669 6.87992 10.6584C5.52536 11.3039 4.58655 11.9632 3.8355 12.8285C2.73575 14.0921 1.85059 17.7593 1.85059 17.7593H7.69803H7.72485L7.76509 17.567L7.85897 17.1687C7.97967 16.6742 8.15402 16.2896 8.40884 15.9737C8.85142 15.4106 9.50859 15.0535 10.4608 14.614C13.3979 13.3367 15.061 11.867 15.7718 8.90031C16.7911 4.60132 14.2563 1.6758 9.65612 0.522076Z" fill="#7D2EFF"/>
</g>
<defs>
<clipPath id="clip0_18921_167047">
<rect width="16" height="26" fill="white"/>
</clipPath>
</defs>
</svg>
